<svg xmlns="http://www.w3.org/2000/svg" width="161.13" height="32.13" viewBox="0 0 161.13 32.13"><path d="M-74.805-8.31l3.18-10.29,3.3,10.29Zm13.02,6.99-7.17-21.03h-2.61l-6.84,20.94-2.58.36V0h7.02V-1.05l-2.94-.36,1.77-5.79h7.17l1.89,5.82-2.91.33V0h9.69V-1.05Zm10.71-5.19c-1.86,0-2.88-1.74-2.88-4.5,0-2.79,1.11-4.53,2.97-4.53,1.83,0,2.94,1.71,2.94,4.44C-48.045-8.28-49.155-6.51-51.075-6.51Zm2.79,7.32c2.16,0,2.88,1.14,2.88,2.52,0,1.83-1.95,3.21-5.82,3.21-2.73,0-4.44-1.17-4.44-3.39A3.652,3.652,0,0,1-54.645.57a11.757,11.757,0,0,0,2.88.24Zm6.3-17.01-.51-.33-3.81,1.41a7.2,7.2,0,0,0-4.68-1.41c-4.23,0-6.54,2.22-6.54,5.46a5.117,5.117,0,0,0,2.58,4.68c-1.74,1.53-2.43,2.61-2.43,3.99A2.791,2.791,0,0,0-55.215.3c-2.1.9-3.06,2.07-3.06,3.45,0,2.25,1.92,4.05,7.05,4.05,5.91,0,9-2.76,9-5.91,0-2.7-1.74-4.41-6.03-4.41h-4.41c-1.68,0-2.28-.57-2.28-1.65a3.085,3.085,0,0,1,.66-1.89,8.693,8.693,0,0,0,3.24.57c4.2,0,6.54-2.31,6.54-5.58a5.238,5.238,0,0,0-.99-3.21l3.51.27Zm8.46,9.69c-1.86,0-2.88-1.74-2.88-4.5,0-2.79,1.11-4.53,2.97-4.53,1.83,0,2.94,1.71,2.94,4.44C-30.5-8.28-31.605-6.51-33.525-6.51Zm2.79,7.32c2.16,0,2.88,1.14,2.88,2.52,0,1.83-1.95,3.21-5.82,3.21-2.73,0-4.44-1.17-4.44-3.39A3.652,3.652,0,0,1-37.1.57a11.757,11.757,0,0,0,2.88.24Zm6.3-17.01-.51-.33-3.81,1.41a7.2,7.2,0,0,0-4.68-1.41c-4.23,0-6.54,2.22-6.54,5.46A5.117,5.117,0,0,0-37.4-6.39c-1.74,1.53-2.43,2.61-2.43,3.99A2.791,2.791,0,0,0-37.665.3c-2.1.9-3.06,2.07-3.06,3.45,0,2.25,1.92,4.05,7.05,4.05,5.91,0,9-2.76,9-5.91,0-2.7-1.74-4.41-6.03-4.41h-4.41c-1.68,0-2.28-.57-2.28-1.65a3.085,3.085,0,0,1,.66-1.89,8.693,8.693,0,0,0,3.24.57c4.2,0,6.54-2.31,6.54-5.58a5.238,5.238,0,0,0-.99-3.21l3.51.27Zm7.65-.03-.42-.27-5.76,1.83v.75l2.37.24c.09,1.44.12,2.52.12,4.47v2.16c0,1.65-.03,4.14-.06,5.85l-2.19.27V0h9.03V-.93l-2.76-.36c-.03-1.71-.06-4.14-.06-5.76V-9.72a8.129,8.129,0,0,1,2.7-4.41l.33.36a3.1,3.1,0,0,0,2.37,1.44c1.41,0,1.98-.93,2.07-2.28a2.5,2.5,0,0,0-2.7-1.92c-1.8,0-3.81,1.59-4.77,4.47Zm12.72,7.02c.18-4.38,1.83-6.21,3.72-6.21,1.83,0,3.12,1.56,3.12,3.99,0,1.53-.33,2.22-1.71,2.22ZM6.315-8.1a6.48,6.48,0,0,0,.21-1.86,6.227,6.227,0,0,0-6.6-6.57,8.078,8.078,0,0,0-8.16,8.49c0,5.46,3.42,8.52,8.13,8.52a6.808,6.808,0,0,0,6.45-3.87l-.6-.42a5.162,5.162,0,0,1-4.5,2.31c-2.91,0-5.19-2.01-5.31-6.6Zm9.21-2.01c-2.31-.75-2.97-1.56-2.97-2.82,0-1.47,1.14-2.43,3.12-2.43a4.825,4.825,0,0,1,2.28.54l.93,3.24h1.53l.21-3.6a10.14,10.14,0,0,0-5.04-1.35c-4.11,0-6.36,2.22-6.36,5.1,0,2.43,1.59,3.87,4.17,4.68l1.65.54c2.34.78,3.03,1.62,3.03,2.94,0,1.65-1.26,2.58-3.66,2.58a6.532,6.532,0,0,1-2.61-.48l-.84-3.63H9.225L9.1-.9A11.277,11.277,0,0,0,14.655.48c4.41,0,6.87-2.1,6.87-5.16,0-2.31-1.29-3.9-4.44-4.95Zm14.91,0c-2.31-.75-2.97-1.56-2.97-2.82,0-1.47,1.14-2.43,3.12-2.43a4.825,4.825,0,0,1,2.28.54l.93,3.24h1.53l.21-3.6a10.14,10.14,0,0,0-5.04-1.35c-4.11,0-6.36,2.22-6.36,5.1,0,2.43,1.59,3.87,4.17,4.68l1.65.54c2.34.78,3.03,1.62,3.03,2.94,0,1.65-1.26,2.58-3.66,2.58a6.532,6.532,0,0,1-2.61-.48l-.84-3.63h-1.74l-.12,3.9A11.277,11.277,0,0,0,29.565.48c4.41,0,6.87-2.1,6.87-5.16,0-2.31-1.29-3.9-4.44-4.95Zm12.39-9.75a2.269,2.269,0,0,0,2.37-2.22,2.257,2.257,0,0,0-2.37-2.25,2.257,2.257,0,0,0-2.37,2.25A2.269,2.269,0,0,0,42.825-19.86Zm2.13,18.69c-.03-1.71-.06-4.23-.06-5.88v-4.5l.06-4.68-.42-.27-6.09,1.71v.81l2.43.24c.06,1.5.09,2.64.09,4.56v2.13c0,1.65-.03,4.14-.06,5.85l-2.19.27V0h8.25V-.93ZM64.7-16.05h-5.94v.96l2.46.33L57.525-3.87l-3.96-10.95,2.4-.27v-.96h-8.61v.96l1.92.24L55.245.09h1.74l5.64-14.85,2.07-.33Zm4.86,6.84c.18-4.38,1.83-6.21,3.72-6.21,1.83,0,3.12,1.56,3.12,3.99,0,1.53-.33,2.22-1.71,2.22ZM79.935-8.1a6.48,6.48,0,0,0,.21-1.86,6.227,6.227,0,0,0-6.6-6.57,8.078,8.078,0,0,0-8.16,8.49c0,5.46,3.42,8.52,8.13,8.52a6.808,6.808,0,0,0,6.45-3.87l-.6-.42a5.162,5.162,0,0,1-4.5,2.31c-2.91,0-5.19-2.01-5.31-6.6Z" transform="translate(80.985 24.33)" fill="#333"/></svg>