<svg xmlns="http://www.w3.org/2000/svg" width="103.26" height="25.14" viewBox="0 0 103.26 25.14">
  <path id="classic" d="M-33.21-6.3h-1.74l-1.32,5.07a7.765,7.765,0,0,1-2.94.57c-4.5,0-7.8-3.36-7.8-10.44,0-7.02,3.36-10.47,7.8-10.47a6.863,6.863,0,0,1,2.7.51l1.32,5.13h1.71l.06-5.19a12.2,12.2,0,0,0-6.33-1.68c-6.42,0-11.73,4.17-11.73,11.67,0,7.47,4.95,11.7,11.61,11.7a13.261,13.261,0,0,0,6.69-1.71Zm8.67,5.13c-.06-1.92-.09-3.99-.09-5.88V-19.53l.12-4.77-.42-.27-6.03,1.29v.84l2.43.18V-7.05c0,1.89-.03,3.96-.09,5.85l-2.31.27V0h8.7V-.93Zm13.53-1.89c-1.38,1.14-2.13,1.59-3.12,1.59-1.44,0-2.4-.84-2.4-2.61,0-1.86.9-3.24,3.27-4.17.51-.21,1.35-.45,2.25-.72Zm6.27.99c-.54.72-.9.99-1.35.99-.66,0-1.08-.45-1.08-1.8v-7.74c0-4.2-1.65-5.91-5.58-5.91-4.17,0-6.66,1.68-7.05,4.38A1.646,1.646,0,0,0-18-10.77c1.02,0,1.83-.66,1.95-2.31l.42-2.16a7.119,7.119,0,0,1,1.56-.18c2.25,0,3.06.87,3.06,4.05v1.53c-1.17.27-2.37.6-3.27.9-4.62,1.44-6,2.91-6,5.4,0,2.52,1.83,4.02,4.35,4.02,2.22,0,3.39-.93,5.04-2.67A3.125,3.125,0,0,0-7.62.45,3.447,3.447,0,0,0-4.2-1.62Zm8.4-8.04C1.35-10.86.69-11.67.69-12.93c0-1.47,1.14-2.43,3.12-2.43a4.825,4.825,0,0,1,2.28.54l.93,3.24H8.55l.21-3.6a10.14,10.14,0,0,0-5.04-1.35c-4.11,0-6.36,2.22-6.36,5.1,0,2.43,1.59,3.87,4.17,4.68l1.65.54c2.34.78,3.03,1.62,3.03,2.94,0,1.65-1.26,2.58-3.66,2.58A6.532,6.532,0,0,1-.06-1.17L-.9-4.8H-2.64L-2.76-.9A11.277,11.277,0,0,0,2.79.48c4.41,0,6.87-2.1,6.87-5.16,0-2.31-1.29-3.9-4.44-4.95Zm14.91,0c-2.31-.75-2.97-1.56-2.97-2.82,0-1.47,1.14-2.43,3.12-2.43a4.825,4.825,0,0,1,2.28.54l.93,3.24h1.53l.21-3.6a10.14,10.14,0,0,0-5.04-1.35c-4.11,0-6.36,2.22-6.36,5.1,0,2.43,1.59,3.87,4.17,4.68l1.65.54c2.34.78,3.03,1.62,3.03,2.94,0,1.65-1.26,2.58-3.66,2.58a6.532,6.532,0,0,1-2.61-.48L14.01-4.8H12.27L12.15-.9A11.277,11.277,0,0,0,17.7.48c4.41,0,6.87-2.1,6.87-5.16,0-2.31-1.29-3.9-4.44-4.95Zm12.39-9.75a2.269,2.269,0,0,0,2.37-2.22,2.257,2.257,0,0,0-2.37-2.25,2.257,2.257,0,0,0-2.37,2.25A2.269,2.269,0,0,0,30.96-19.86ZM33.09-1.17c-.03-1.71-.06-4.23-.06-5.88v-4.5l.06-4.68-.42-.27-6.09,1.71v.81l2.43.24c.06,1.5.09,2.64.09,4.56v2.13c0,1.65-.03,4.14-.06,5.85l-2.19.27V0H35.1V-.93ZM47.88-12.93c.18,1.68,1.02,2.31,2.16,2.31a1.676,1.676,0,0,0,1.74-1.41c-.45-2.58-2.82-4.5-6-4.5a8.161,8.161,0,0,0-8.52,8.55c0,5.34,3.45,8.46,7.98,8.46a6.769,6.769,0,0,0,6.54-3.9l-.63-.33A5.215,5.215,0,0,1,46.83-1.5c-3.24,0-5.43-2.52-5.43-6.87,0-4.47,2.01-7.05,4.86-7.05a3.919,3.919,0,0,1,1.17.15Z" transform="translate(51.48 24.57)" fill="#333"/>
</svg>
