<svg xmlns="http://www.w3.org/2000/svg" width="122.7" height="24.9" viewBox="0 0 122.7 24.9"><path d="M-42.96-6.3H-44.7l-1.32,5.07a7.765,7.765,0,0,1-2.94.57c-4.5,0-7.8-3.36-7.8-10.44,0-7.02,3.36-10.47,7.8-10.47a6.863,6.863,0,0,1,2.7.51l1.32,5.13h1.71l.06-5.19A12.2,12.2,0,0,0-49.5-22.8c-6.42,0-11.73,4.17-11.73,11.67,0,7.47,4.95,11.7,11.61,11.7a13.261,13.261,0,0,0,6.69-1.71Zm8.37-9.93-.42-.27-5.76,1.83v.75l2.37.24c.09,1.44.12,2.52.12,4.47v2.16c0,1.65-.03,4.14-.06,5.85l-2.19.27V0h9.03V-.93l-2.76-.36c-.03-1.71-.06-4.14-.06-5.76V-9.72a8.129,8.129,0,0,1,2.7-4.41l.33.36a3.1,3.1,0,0,0,2.37,1.44c1.41,0,1.98-.93,2.07-2.28a2.5,2.5,0,0,0-2.7-1.92c-1.8,0-3.81,1.59-4.77,4.47Zm12.72,7.02c.18-4.38,1.83-6.21,3.72-6.21,1.83,0,3.12,1.56,3.12,3.99,0,1.53-.33,2.22-1.71,2.22ZM-11.49-8.1a6.48,6.48,0,0,0,.21-1.86,6.227,6.227,0,0,0-6.6-6.57,8.078,8.078,0,0,0-8.16,8.49c0,5.46,3.42,8.52,8.13,8.52a6.808,6.808,0,0,0,6.45-3.87l-.6-.42a5.162,5.162,0,0,1-4.5,2.31c-2.91,0-5.19-2.01-5.31-6.6ZM.42-3.06C-.96-1.92-1.71-1.47-2.7-1.47c-1.44,0-2.4-.84-2.4-2.61,0-1.86.9-3.24,3.27-4.17.51-.21,1.35-.45,2.25-.72Zm6.27.99c-.54.72-.9.99-1.35.99-.66,0-1.08-.45-1.08-1.8v-7.74c0-4.2-1.65-5.91-5.58-5.91-4.17,0-6.66,1.68-7.05,4.38a1.646,1.646,0,0,0,1.8,1.38c1.02,0,1.83-.66,1.95-2.31l.42-2.16a7.119,7.119,0,0,1,1.56-.18c2.25,0,3.06.87,3.06,4.05v1.53c-1.17.27-2.37.6-3.27.9-4.62,1.44-6,2.91-6,5.4C-8.85-1.02-7.02.48-4.5.48-2.28.48-1.11-.45.54-2.19A3.125,3.125,0,0,0,3.81.45,3.447,3.447,0,0,0,7.23-1.62ZM18.3-2.22a3.374,3.374,0,0,1-2.13.9c-1.2,0-1.95-.69-1.95-2.37v-11.1h3.99v-1.26H14.25l.09-4.74H11.76l-1.29,4.71-2.79.3v.99h2.58v7.86c0,1.2-.03,2.04-.03,3,0,3.06,1.53,4.41,4.29,4.41a4.779,4.779,0,0,0,4.32-2.13Zm5.85-17.64a2.269,2.269,0,0,0,2.37-2.22,2.257,2.257,0,0,0-2.37-2.25,2.257,2.257,0,0,0-2.37,2.25A2.269,2.269,0,0,0,24.15-19.86ZM26.28-1.17c-.03-1.71-.06-4.23-.06-5.88v-4.5l.06-4.68-.42-.27-6.09,1.71v.81l2.43.24c.06,1.5.09,2.64.09,4.56v2.13c0,1.65-.03,4.14-.06,5.85l-2.19.27V0h8.25V-.93ZM46.02-16.05H40.08v.96l2.46.33L38.85-3.87,34.89-14.82l2.4-.27v-.96H28.68v.96l1.92.24L36.57.09h1.74l5.64-14.85,2.07-.33Zm4.86,6.84c.18-4.38,1.83-6.21,3.72-6.21,1.83,0,3.12,1.56,3.12,3.99,0,1.53-.33,2.22-1.71,2.22ZM61.26-8.1a6.48,6.48,0,0,0,.21-1.86,6.227,6.227,0,0,0-6.6-6.57,8.078,8.078,0,0,0-8.16,8.49c0,5.46,3.42,8.52,8.13,8.52a6.808,6.808,0,0,0,6.45-3.87l-.6-.42a5.162,5.162,0,0,1-4.5,2.31c-2.91,0-5.19-2.01-5.31-6.6Z" transform="translate(61.23 24.33)" fill="#333"/></svg>