<svg xmlns="http://www.w3.org/2000/svg" width="50.5" height="50.5" viewBox="0 0 50.5 50.5">
  <path id="パス_189" data-name="パス 189" d="M160.038,229.245a.9.9,0,0,0-.021.432v.006a.946.946,0,0,0,.061.2l0,.008a.973.973,0,0,0,1.169.563l13.474-4.2,35.32-35.305.013-.012a1.689,1.689,0,0,0-.075-2.355l-8.3-8.3a1.694,1.694,0,0,0-2.118.187l-35.32,35.305Zm40.8-46.365,6.889,6.885-32.468,32.454-3.282-3.281-3.607-3.6,16.707-16.7ZM167.4,216.119l3.7,3.694,3.283,3.281-.978.978-7.449,2.325a3.163,3.163,0,0,0-.75-1.1,3.2,3.2,0,0,0-1.1-.751l2.325-7.445Z" transform="translate(-160 -180)" fill="#fff"/>
</svg>
