<svg xmlns="http://www.w3.org/2000/svg" width="52.552" height="43.962" viewBox="0 0 52.552 43.962"><g transform="translate(-160 -180)"><path d="M189.812,209.8a9.264,9.264,0,1,0-9.265-9.264A9.274,9.274,0,0,0,189.812,209.8Zm0-1.128a8.136,8.136,0,1,1,8.136-8.136A8.145,8.145,0,0,1,189.812,208.675Z" transform="translate(-3.676 -2.017)" fill="#595757"/><path d="M190.068,194.893a5.26,5.26,0,0,0-3.018,9.045,7.46,7.46,0,0,1,7.436-7.057c.067,0,.134,0,.2,0a.9.9,0,0,1,.126.014l-.009-.011h.022A5.256,5.256,0,0,0,190.068,194.893Z" transform="translate(-4.545 -2.658)" fill="#595757"/><path d="M210.994,186.426l-.846-.214-1.038-.265-1.174-.293-1.647-.418-.028,0-.108-.029-1.6-.406-.282-.067-1.557-.395-.474,1.535-.448,1.446-.288.9A18.493,18.493,0,0,0,171,187.877c-.312.438-.612.886-.887,1.354-1.382-1.956-3.332-3.454-5.339-3.454a4.014,4.014,0,0,0-1.105.153c-1.648.485-2.849,2-3.38,4.259a11.513,11.513,0,0,0,.163,5.726,8.035,8.035,0,0,0,4.875,5.535l5.359,20.029a3.311,3.311,0,0,0,3.182,2.482,3.149,3.149,0,0,0,.6-.056,3.266,3.266,0,0,0,2.495-4.193l-1.136-3.566-.911-2.9a18.433,18.433,0,0,0,19.737,1.71c.09-.046.181-.085.271-.134.193-.1.376-.223.565-.333a19.148,19.148,0,0,0,1.971-1.3l-1.828,6.6a3.331,3.331,0,0,0,.327,2.573,3.19,3.19,0,0,0,2,1.512,3.275,3.275,0,0,0,3.989-2.488l4.762-20.836c2.634-.649,3.475-1.958,3.707-2.962l.006-.028,0-.028,1.811-9.129.31-1.58Zm-36.847,35.816a1.254,1.254,0,0,1-.282.028,1.639,1.639,0,0,1-1.551-1.23l-5.439-20.351a1.073,1.073,0,0,0-.767-.778,6.177,6.177,0,0,1-4.034-4.469c-.914-3.115-.158-7.233,2.07-7.887a2.324,2.324,0,0,1,.627-.085c1.568,0,3.323,1.54,4.452,3.5a9.286,9.286,0,0,1,.919,2.11,6.2,6.2,0,0,1-.981,5.941,1.066,1.066,0,0,0-.232,1.067l3.453,10.822,2.968,9.315A1.57,1.57,0,0,1,174.147,222.242Zm30.991-35.549-1.6,5.495-.643,2.206a.35.35,0,0,0,.248.44.434.434,0,0,0,.085.012.372.372,0,0,0,.35-.277l.338-1.219,1.823-6.506,1.173.3-2,7.757a.362.362,0,0,0,.254.446.428.428,0,0,0,.085.012.36.36,0,0,0,.344-.282l1.924-7.781,1.179.294-1.772,7.825a.366.366,0,0,0,.26.44.419.419,0,0,0,.084.011.36.36,0,0,0,.345-.282l1.636-7.58.057-.257,1.269.322-1.806,9.128c-.236,1.021-1.6,1.523-2.781,1.772a1.1,1.1,0,0,0-.847.84L200.3,221a1.607,1.607,0,0,1-1.551,1.269,1.409,1.409,0,0,1-.373-.045,1.6,1.6,0,0,1-1.112-1.992l2.562-9.247,3.233-11.667a1.105,1.105,0,0,0-.361-1.151,6.743,6.743,0,0,1-.908-.886,2.506,2.506,0,0,1-.718-1.737c0-.016,0-.034,0-.05a1.666,1.666,0,0,1,.042-.232l.214-.7,1.349-4.367,1.179-3.826,1.245.314Zm-34.494,13.2a8.057,8.057,0,0,0,1.122-7.289c-.022-.079-.044-.158-.073-.237a15.7,15.7,0,0,1,28.683-.451l-.879,2.844-.007.028-.011.028c-.282,1.027-.175,2.618,1.845,4.412l-2.274,8.21a15.685,15.685,0,0,1-26.162-.5Z" fill="#595757"/><path d="M164.907,191.09c-.65,0-1.4.908-1.4,2.026a1.562,1.562,0,0,0,.841,1.557.3.3,0,0,0,.118.028.31.31,0,0,0,.3-.3,3.3,3.3,0,0,1,.141-.948,2.984,2.984,0,0,1,.869-1.416.285.285,0,0,0,.039-.4A1.235,1.235,0,0,0,164.907,191.09Z" transform="translate(-0.627 -1.984)" fill="#595757"/></g></svg>