<svg xmlns="http://www.w3.org/2000/svg" width="33.847" height="44.422" viewBox="0 0 33.847 44.422"><g transform="translate(-160 -180)"><path d="M192.913,219.927l-.88-1.267,0,0-.008-.012-2.71,3.441-.112.2,3.378,4.56,7.607,4.285a1.041,1.041,0,0,0,.223.075c.012,0,.023.009.035.012a1.033,1.033,0,0,0,.238.031h.012c.01,0,.018,0,.027,0a1.016,1.016,0,0,0,.446-.112h0a.956.956,0,0,0,.189-.128c.014-.012.026-.026.039-.038a1.026,1.026,0,0,0,.149-.146l1.049-1.5a1.038,1.038,0,0,0-.345-1.5l-6.273-3.511Z" transform="translate(-8.932 -11.823)" fill="#fff"/><path d="M161.011,203.54l8.292.21,2.095-2.362,1.161-1.3,2.629,10.228-5.6,5.584,2.182,11.262a1.037,1.037,0,0,0,1.162.829l2.01-.281a1.037,1.037,0,0,0,.882-1.18l-1.4-9.343,4.179-4.522.566-.718,2.27-2.873a1.794,1.794,0,0,0,.391-1.086,1.833,1.833,0,0,0-.071-.52l-.218-.763-2.409-7.559-.592-1.869,5.79-.335,5.721,2.758a1.036,1.036,0,0,0,1.368-.453c.228-.438.5-.965.736-1.408a1.036,1.036,0,0,0-.447-1.4l-6.195-3.162-8.152-1.542a1.371,1.371,0,0,0-.792.086L172,193.773a1.368,1.368,0,0,0-.621.528l-3.284,5.191-7.071.1A1.036,1.036,0,0,0,160,200.632V202.5A1.038,1.038,0,0,0,161.011,203.54Z" transform="translate(0 -3.584)" fill="#fff"/><path d="M174.547,187.594a3.682,3.682,0,0,0,.972.128,3.876,3.876,0,1,0-.972-.128Z" transform="translate(-3.566)" fill="#fff"/></g></svg>