<!--?xml version="1.0" encoding="utf-8"?-->
<!-- Generator: Adobe Illustrator 18.1.1, SVG Export Plug-In . SVG Version: 6.00 Build 0)  -->
<svg version="1.1" id="_x32_" xmlns="http://www.w3.org/2000/svg" xmlns:xlink="http://www.w3.org/1999/xlink" x="0px" y="0px" viewBox="0 0 512 512" style="width: 256px; height: 256px; opacity: 1;" xml:space="preserve">
<style type="text/css">
	.st0{fill:#4B4B4B;}
</style>
<g>
	<path class="st0" d="M325.594,0c-0.247,0-3.346,0-30.05,0v138.282h30.05c13.162,0,23.836-10.674,23.836-23.844V23.835
		C349.43,10.665,338.756,0,325.594,0z" style="fill: rgb(153, 207, 22);"></path>
	<path class="st0" d="M162.57,256c0,128.936,50.448,256,108.372,256c2.959,0,5.654,0,8.3,0V373.076
		c-9.602-2.16-17.127-10.072-18.413-20.184c0,0-6.7-32.614-6.7-96.892s6.7-96.892,6.7-96.892
		c1.286-10.112,8.811-18.024,18.413-20.184V0c-2.646,0-5.341,0-8.3,0C213.019,0,162.57,127.065,162.57,256z" style="fill: rgb(153, 207, 22);"></path>
	<path class="st0" d="M325.594,373.719h-30.05V512c26.704,0,29.803,0,30.05,0c13.162,0,23.836-10.664,23.836-23.835v-90.602
		C349.43,384.392,338.756,373.719,325.594,373.719z" style="fill: rgb(153, 207, 22);"></path>
</g>
</svg>
