<svg xmlns="http://www.w3.org/2000/svg" width="159" height="24.81" viewBox="0 0 159 24.81"><path d="M-69.4-21.18v-1.08h-10.02v1.08l2.85.27c.06,3.03.06,6.06.06,9.06v1.47c0,3.06,0,6.09-.06,9.06l-2.85.27V0H-69.4V-1.05l-2.85-.27c-.09-3-.09-6.06-.09-9.06v-1.47c0-3.06,0-6.06.09-9.06Zm18.93,20.01c-.03-1.71-.06-4.17-.06-5.88v-3.66c0-4.02-1.77-5.82-4.59-5.82-1.95,0-3.81.84-5.7,3.03l-.21-2.73-.42-.27-5.76,1.83v.75l2.37.24c.09,1.44.12,2.52.12,4.47v2.16c0,1.65-.03,4.14-.06,5.85l-2.19.27V0h8.22V-.93l-1.95-.24c-.03-1.71-.06-4.23-.06-5.88v-5.4a6.169,6.169,0,0,1,3.93-1.95c1.62,0,2.37.9,2.37,3.51v3.84c0,1.71-.03,4.17-.09,5.85l-2.1.27V0h8.22V-.93Zm20.46,0c-.03-1.71-.06-4.17-.06-5.88v-3.66c0-4.02-1.77-5.82-4.59-5.82-1.95,0-3.81.84-5.7,3.03l-.21-2.73L-41-16.5l-5.76,1.83v.75l2.37.24c.09,1.44.12,2.52.12,4.47v2.16c0,1.65-.03,4.14-.06,5.85l-2.19.27V0h8.22V-.93l-1.95-.24c-.03-1.71-.06-4.23-.06-5.88v-5.4a6.169,6.169,0,0,1,3.93-1.95c1.62,0,2.37.9,2.37,3.51v3.84c0,1.71-.03,4.17-.09,5.85l-2.1.27V0h8.22V-.93ZM-17.835.48c4.59,0,8.1-3.15,8.1-8.55s-3.75-8.46-8.1-8.46c-4.38,0-8.1,3.09-8.1,8.46S-22.485.48-17.835.48Zm0-1.11c-2.49,0-3.87-2.43-3.87-7.41,0-4.95,1.38-7.38,3.87-7.38,2.43,0,3.87,2.43,3.87,7.38C-13.965-3.06-15.405-.63-17.835-.63ZM8.445-16.05H2.5v.96l2.46.33L1.275-3.87l-3.96-10.95,2.4-.27v-.96H-8.9v.96l1.92.24L-1.005.09H.735l5.64-14.85,2.07-.33ZM18.525-3.06c-1.38,1.14-2.13,1.59-3.12,1.59-1.44,0-2.4-.84-2.4-2.61,0-1.86.9-3.24,3.27-4.17.51-.21,1.35-.45,2.25-.72Zm6.27.99c-.54.72-.9.99-1.35.99-.66,0-1.08-.45-1.08-1.8v-7.74c0-4.2-1.65-5.91-5.58-5.91-4.17,0-6.66,1.68-7.05,4.38a1.646,1.646,0,0,0,1.8,1.38c1.02,0,1.83-.66,1.95-2.31l.42-2.16a7.119,7.119,0,0,1,1.56-.18c2.25,0,3.06.87,3.06,4.05v1.53c-1.17.27-2.37.6-3.27.9-4.62,1.44-6,2.91-6,5.4,0,2.52,1.83,4.02,4.35,4.02,2.22,0,3.39-.93,5.04-2.67A3.125,3.125,0,0,0,21.915.45a3.447,3.447,0,0,0,3.42-2.07ZM36.4-2.22a3.374,3.374,0,0,1-2.13.9c-1.2,0-1.95-.69-1.95-2.37v-11.1h3.99v-1.26h-3.96l.09-4.74h-2.58l-1.29,4.71-2.79.3v.99h2.58v7.86c0,1.2-.03,2.04-.03,3,0,3.06,1.53,4.41,4.29,4.41a4.779,4.779,0,0,0,4.32-2.13Zm5.85-17.64a2.269,2.269,0,0,0,2.37-2.22,2.257,2.257,0,0,0-2.37-2.25,2.257,2.257,0,0,0-2.37,2.25A2.269,2.269,0,0,0,42.255-19.86Zm2.13,18.69c-.03-1.71-.06-4.23-.06-5.88v-4.5l.06-4.68-.42-.27-6.09,1.71v.81l2.43.24c.06,1.5.09,2.64.09,4.56v2.13c0,1.65-.03,4.14-.06,5.85l-2.19.27V0h8.25V-.93Zm19.74-14.88h-5.94v.96l2.46.33L56.955-3.87l-3.96-10.95,2.4-.27v-.96h-8.61v.96l1.92.24L54.675.09h1.74l5.64-14.85,2.07-.33Zm4.86,6.84c.18-4.38,1.83-6.21,3.72-6.21,1.83,0,3.12,1.56,3.12,3.99,0,1.53-.33,2.22-1.71,2.22ZM79.365-8.1a6.48,6.48,0,0,0,.21-1.86,6.227,6.227,0,0,0-6.6-6.57,8.078,8.078,0,0,0-8.16,8.49c0,5.46,3.42,8.52,8.13,8.52a6.808,6.808,0,0,0,6.45-3.87l-.6-.42a5.162,5.162,0,0,1-4.5,2.31c-2.91,0-5.19-2.01-5.31-6.6Z" transform="translate(79.425 24.33)" fill="#333"/></svg>