<svg id="レイヤー_1" data-name="レイヤー 1" xmlns="http://www.w3.org/2000/svg" viewBox="0 0 111.71 42.52"><defs><style>.cls-1{fill:#fff;}.cls-2{fill:#abcd03;}</style></defs><title>パーツ</title><path class="cls-1" d="M60.05,16.67v7.39h3.84v1.79H58V16.67Z"/><path class="cls-1" d="M70.81,24.07h-3l-.59,1.78H65.06l3.11-9.18h2.25l3.1,9.18H71.41Zm-2.43-1.79h1.83l-.92-2.72Z"/><path class="cls-1" d="M89.7,16.67v1.79H87.47v7.39H85.41V18.46H83.18V16.67Z"/><path class="cls-1" d="M94.23,25.85H92.17V16.67h2.06Z"/><path class="cls-1" d="M101.94,25.85h-2.3l-2.82-9.18H99l1.81,5.94,1.82-5.94h2.15Z"/><path class="cls-1" d="M106.48,16.67h5.19v1.79h-3.14v1.85h3.18V22.1h-3.18v2h3.18v1.79h-5.23Z"/><path class="cls-1" d="M80.6,21.25a3.59,3.59,0,0,0-1.33-.65c-.71-.2-1.84-.11-2.19-.93a.91.91,0,0,1,.14-1,1.76,1.76,0,0,1,2.55.05l.09.12,1.84-.83-.15-.2a4.11,4.11,0,0,0-6.13,0,2.41,2.41,0,0,0-.32,2.33,3.19,3.19,0,0,0,2,1.69l.16,0c.71.21,1.75.16,2.14.93a.89.89,0,0,1,.09.39c0,.62-.67,1.12-1.49,1.12a1.6,1.6,0,0,1-1.29-.57l-.1-.12-1.83.83.15.2A3.87,3.87,0,0,0,78,26.05c2,0,3.58-1.27,3.58-2.84A2.58,2.58,0,0,0,80.6,21.25Z"/><path class="cls-1" d="M53,25.85a4.62,4.62,0,1,1,3.86-7.15l-1.7,1a2.67,2.67,0,1,0,0,3.07l1.71,1A4.62,4.62,0,0,1,53,25.85Z"/><path class="cls-2" d="M1.46,25.33.24,23.21A1.78,1.78,0,0,1,.9,20.77l6.22-3.6a.75.75,0,0,1,1,1L3.44,25.38A1.16,1.16,0,0,1,1.46,25.33Z"/><path class="cls-2" d="M4,33.42l2.11,1.22A1.16,1.16,0,0,0,7.8,33.7l.47-8.54a.75.75,0,0,0-1.39-.42L3.29,31A1.8,1.8,0,0,0,4,33.42Z"/><path class="cls-2" d="M12.49,40.37h2.45a1.16,1.16,0,0,0,1-1.68l-3.86-7.64a.75.75,0,0,0-1.41.34v7.19A1.79,1.79,0,0,0,12.49,40.37Z"/><path class="cls-2" d="M23.21,42.28l2.12-1.22a1.16,1.16,0,0,0,.05-2L18.23,34.4a.75.75,0,0,0-1.06,1l3.6,6.22A1.78,1.78,0,0,0,23.21,42.28Z"/><path class="cls-2" d="M33.42,38.57l1.22-2.11a1.16,1.16,0,0,0-.94-1.74l-8.54-.47a.75.75,0,0,0-.42,1.39L31,39.23A1.8,1.8,0,0,0,33.42,38.57Z"/><path class="cls-2" d="M40.37,30V27.58a1.16,1.16,0,0,0-1.68-1l-7.64,3.86a.75.75,0,0,0,.34,1.41h7.19A1.79,1.79,0,0,0,40.37,30Z"/><path class="cls-2" d="M39.08,17.14,34.4,24.29a.75.75,0,0,0,1,1.06l6.22-3.6a1.79,1.79,0,0,0,.66-2.44l-1.22-2.12A1.16,1.16,0,0,0,39.08,17.14Z"/><path class="cls-2" d="M34.72,8.82l-.47,8.54a.75.75,0,0,0,1.39.42l3.59-6.23a1.8,1.8,0,0,0-.66-2.45L36.46,7.88A1.16,1.16,0,0,0,34.72,8.82Z"/><path class="cls-2" d="M26.55,3.83l3.86,7.64a.75.75,0,0,0,1.41-.34V3.94A1.79,1.79,0,0,0,30,2.15H27.58A1.16,1.16,0,0,0,26.55,3.83Z"/><path class="cls-2" d="M17.14,3.43l7.15,4.69a.75.75,0,0,0,1.06-1L21.75.9A1.78,1.78,0,0,0,19.31.24L17.19,1.46A1.15,1.15,0,0,0,17.14,3.43Z"/><path class="cls-2" d="M8.82,7.8l8.54.47a.75.75,0,0,0,.42-1.39L11.55,3.29a1.8,1.8,0,0,0-2.45.65L7.88,6.06A1.16,1.16,0,0,0,8.82,7.8Z"/><path class="cls-2" d="M3.83,16l7.64-3.86a.75.75,0,0,0-.34-1.41H3.94a1.79,1.79,0,0,0-1.79,1.79v2.45A1.16,1.16,0,0,0,3.83,16Z"/></svg>