<svg id="レイヤー_1" data-name="レイヤー 1" xmlns="http://www.w3.org/2000/svg" viewBox="0 0 42.52 55.01"><defs><style>.cls-1{fill:#686b6e;}.cls-2{fill:#abcd03;}</style></defs><title>パーツ</title><path class="cls-1" d="M8,48.74v4.94h2.56v1.19H6.65V48.74Z"/><path class="cls-1" d="M15.21,53.68h-2l-.4,1.19H11.37l2.07-6.13h1.5L17,54.87H15.6Zm-1.63-1.19H14.8l-.61-1.82Z"/><path class="cls-1" d="M27.83,48.74v1.2h-1.5v4.93H25V49.94H23.47v-1.2Z"/><path class="cls-1" d="M30.85,54.87H29.48V48.74h1.37Z"/><path class="cls-1" d="M36,54.87H34.46l-1.88-6.13H34l1.2,4,1.22-4h1.44Z"/><path class="cls-1" d="M39,48.74h3.46v1.2H40.4v1.23h2.12v1.2H40.4v1.31h2.12v1.19H39Z"/><path class="cls-1" d="M21.74,51.8a2.35,2.35,0,0,0-.88-.44c-.48-.13-1.23-.07-1.47-.61a.64.64,0,0,1,.09-.65,1.13,1.13,0,0,1,.84-.35,1.11,1.11,0,0,1,.87.38l.06.09,1.23-.56-.1-.13a2.75,2.75,0,0,0-4.09,0,1.62,1.62,0,0,0-.22,1.56,2.12,2.12,0,0,0,1.35,1.13l.11,0c.47.14,1.16.1,1.42.62a.59.59,0,0,1,.07.26c0,.41-.45.75-1,.75a1.11,1.11,0,0,1-.86-.38l-.07-.09L17.87,54l.1.13A2.59,2.59,0,0,0,20,55a2.19,2.19,0,0,0,2.39-1.9A1.71,1.71,0,0,0,21.74,51.8Z"/><path class="cls-1" d="M3.31,54.87A3.09,3.09,0,1,1,5.89,50.1l-1.14.66A1.76,1.76,0,0,0,3.31,50a1.78,1.78,0,1,0,1.45,2.8l1.14.65A3.09,3.09,0,0,1,3.31,54.87Z"/><path class="cls-2" d="M1.45,25.19.24,23.09a1.78,1.78,0,0,1,.65-2.43l6.19-3.58a.74.74,0,0,1,1,1.05L3.42,25.25A1.16,1.16,0,0,1,1.45,25.19Z"/><path class="cls-2" d="M3.92,33.24,6,34.45a1.15,1.15,0,0,0,1.73-.93L8.23,25a.74.74,0,0,0-1.38-.41l-3.58,6.2A1.78,1.78,0,0,0,3.92,33.24Z"/><path class="cls-2" d="M12.42,40.15h2.44a1.15,1.15,0,0,0,1-1.67l-3.83-7.59a.74.74,0,0,0-1.41.33v7.15A1.78,1.78,0,0,0,12.42,40.15Z"/><path class="cls-2" d="M23.09,42.06l2.1-1.22a1.15,1.15,0,0,0,.06-2l-7.12-4.66a.74.74,0,0,0-1.05,1l3.58,6.19A1.77,1.77,0,0,0,23.09,42.06Z"/><path class="cls-2" d="M33.24,38.37l1.21-2.11a1.15,1.15,0,0,0-.93-1.72L25,34.06a.75.75,0,0,0-.41,1.39L30.81,39A1.78,1.78,0,0,0,33.24,38.37Z"/><path class="cls-2" d="M40.15,29.87V27.44a1.15,1.15,0,0,0-1.67-1l-7.59,3.84a.74.74,0,0,0,.33,1.4h7.15A1.78,1.78,0,0,0,40.15,29.87Z"/><path class="cls-2" d="M38.88,17.05l-4.66,7.12a.74.74,0,0,0,1,1l6.19-3.57a1.77,1.77,0,0,0,.66-2.43L40.84,17.1A1.15,1.15,0,0,0,38.88,17.05Z"/><path class="cls-2" d="M34.54,8.77l-.48,8.5a.75.75,0,0,0,1.39.41L39,11.49a1.78,1.78,0,0,0-.65-2.43L36.26,7.84A1.15,1.15,0,0,0,34.54,8.77Z"/><path class="cls-2" d="M26.41,3.81l3.84,7.6a.74.74,0,0,0,1.4-.34V3.92a1.78,1.78,0,0,0-1.78-1.78H27.44A1.15,1.15,0,0,0,26.41,3.81Z"/><path class="cls-2" d="M17.05,3.42l7.12,4.65a.74.74,0,0,0,1-1L21.64.89A1.78,1.78,0,0,0,19.21.24L17.1,1.45A1.16,1.16,0,0,0,17.05,3.42Z"/><path class="cls-2" d="M8.77,7.76l8.5.47a.74.74,0,0,0,.41-1.38L11.49,3.27a1.78,1.78,0,0,0-2.43.65L7.84,6A1.16,1.16,0,0,0,8.77,7.76Z"/><path class="cls-2" d="M3.81,15.88l7.6-3.83a.75.75,0,0,0-.34-1.41H3.92a1.78,1.78,0,0,0-1.78,1.78v2.44A1.15,1.15,0,0,0,3.81,15.88Z"/></svg>